<?xml version="1.0" standalone="no"?>
<!DOCTYPE svg PUBLIC "-//W3C//DTD SVG 20010904//EN"
 "http://www.w3.org/TR/2001/REC-SVG-20010904/DTD/svg10.dtd">
<svg version="1.0" xmlns="http://www.w3.org/2000/svg"
 width="2000.000000pt" height="2000.000000pt" viewBox="0 0 2000.000000 2000.000000"
 preserveAspectRatio="xMidYMid meet">

<g transform="translate(0.000000,2000.000000) scale(0.100000,-0.100000)"
fill="#000000" stroke="none">
<path d="M8722 12247 c-95 -250 -172 -457 -172 -460 0 -4 87 -7 193 -7 l194 0
115 317 c103 282 114 319 100 329 -9 6 -22 10 -29 7 -9 -3 -11 0 -7 10 4 12 0
15 -18 11 -13 -2 -18 -2 -11 2 17 8 -7 33 -25 27 -8 -4 -10 0 -5 12 5 15 2 17
-20 11 -16 -4 -29 -1 -33 6 -5 8 -2 9 11 4 15 -5 16 -4 5 9 -8 9 -22 13 -39 9
-20 -4 -23 -3 -11 5 13 9 13 13 -4 28 -15 14 -18 15 -14 3 4 -11 -1 -16 -13
-16 -21 0 -27 26 -6 26 7 0 4 7 -7 15 -14 10 -23 12 -32 4 -8 -7 -14 -7 -19 1
-3 5 -1 10 5 10 7 0 10 7 6 15 -3 8 -1 27 5 41 5 15 8 28 6 30 -2 2 -81 -200
-175 -449z"/>
<path d="M2232 10153 l3 -255 380 -204 c209 -112 386 -202 393 -199 7 3 10 0
7 -5 -3 -5 21 -23 55 -40 33 -17 60 -28 60 -25 0 2 -13 11 -29 19 -16 9 -31
22 -35 31 -3 9 -2 13 4 10 6 -3 10 -1 10 5 0 16 36 61 43 54 3 -3 3 3 0 15 -3
14 0 23 11 27 9 3 13 10 10 15 -4 8 8 13 27 11 3 -1 6 6 6 13 0 12 -3 12 -15
3 -8 -7 2 21 23 62 30 60 39 71 45 56 5 -14 9 -16 14 -7 4 6 3 17 -3 24 -12
16 2 42 18 32 8 -5 10 1 5 20 l-7 27 84 -42 c191 -96 37 -10 -521 290 l-590
318 2 -255z m979 -283 c23 -13 24 -33 2 -55 -15 -16 -18 -16 -29 -1 -11 15
-12 15 -17 -1 -4 -10 -13 -28 -22 -39 -15 -20 -14 -23 1 -39 10 -10 13 -19 7
-23 -5 -4 -12 -15 -16 -24 -4 -11 -12 -15 -21 -12 -14 5 -14 8 -1 21 18 17 19
33 3 33 -6 0 -9 -3 -5 -6 3 -4 0 -13 -8 -21 -17 -16 -20 -33 -6 -33 13 0 -5
-60 -24 -79 -22 -23 -27 -8 -9 28 30 59 8 41 -24 -21 -18 -33 -31 -63 -28 -65
2 -3 11 8 19 23 9 17 17 23 21 15 4 -6 -2 -23 -13 -36 -11 -16 -22 -21 -26
-15 -3 6 -11 8 -16 5 -15 -10 -11 3 18 53 15 26 42 76 61 112 19 36 39 68 44
71 5 3 9 9 9 13 -2 9 48 106 55 106 3 0 14 -5 25 -10z m-21 -89 c0 -4 -7 -16
-16 -27 -13 -16 -15 -16 -10 -1 3 9 0 17 -6 17 -7 0 -6 5 2 15 12 14 30 12 30
-4z"/>
<path d="M3470 9735 c0 -2 18 -14 40 -25 22 -11 40 -18 40 -15 0 2 -18 14 -40
25 -22 11 -40 18 -40 15z"/>
<path d="M3620 9656 c0 -3 14 -12 30 -21 17 -9 30 -13 30 -11 0 3 -13 12 -30
21 -16 9 -30 13 -30 11z"/>
<path d="M11249 8776 c-2 -2 -335 -6 -739 -10 -1031 -9 -1854 -18 -1858 -21
-2 -2 20 -81 48 -177 28 -95 54 -181 56 -191 5 -16 87 -17 1655 -17 1288 1
1649 3 1649 13 0 8 4 6 10 -3 5 -8 10 -13 11 -10 0 3 2 14 5 25 5 25 17 204
18 265 1 25 6 48 11 53 6 4 4 11 -5 17 -8 5 -10 10 -5 10 6 0 12 11 13 25 l2
25 -434 0 c-239 -1 -435 -2 -437 -4z m858 -12 c-3 -3 -12 -4 -19 -1 -8 3 -5 6
6 6 11 1 17 -2 13 -5z m-37 -50 c0 -8 -5 -12 -10 -9 -6 4 -8 11 -5 16 9 14 15
11 15 -7z m-33 -56 c-3 -8 -6 -5 -6 6 -1 11 2 17 5 13 3 -3 4 -12 1 -19z m-7
-48 c0 -5 -5 -10 -11 -10 -5 0 -7 5 -4 10 3 6 8 10 11 10 2 0 4 -4 4 -10z
m-76 -26 c3 -8 2 -12 -4 -9 -6 3 -10 10 -10 16 0 14 7 11 14 -7z m96 -18 c0
-2 -7 -7 -16 -10 -8 -3 -12 -2 -9 4 6 10 25 14 25 6z m-44 -33 c-7 -7 -26 7
-26 19 0 6 6 6 15 -2 9 -7 13 -15 11 -17z m-6 -73 c0 -5 -5 -10 -11 -10 -5 0
-7 5 -4 10 3 6 8 10 11 10 2 0 4 -4 4 -10z m15 -58 c-3 -3 -11 0 -18 7 -9 10
-8 11 6 5 10 -3 15 -9 12 -12z"/>
<path d="M17100 6720 c-6 -11 -8 -20 -6 -20 3 0 10 9 16 20 6 11 8 20 6 20 -3
0 -10 -9 -16 -20z"/>
</g>
</svg>
