<?xml version="1.0" standalone="no"?>
<!DOCTYPE svg PUBLIC "-//W3C//DTD SVG 20010904//EN"
 "http://www.w3.org/TR/2001/REC-SVG-20010904/DTD/svg10.dtd">
<svg version="1.0" xmlns="http://www.w3.org/2000/svg"
 width="626.000000pt" height="451.000000pt" viewBox="0 0 626.000000 451.000000"
 preserveAspectRatio="xMidYMid meet">

<g transform="translate(0.000000,451.000000) scale(0.100000,-0.100000)"
fill="#000027" stroke="#000027">
<path d="M3375 4133 c6 -4 11 -13 12 -20 3 -15 42 -75 117 -181 50 -71 62 -83
80 -77 50 17 165 17 213 1 128 -42 556 -331 827 -557 49 -41 93 -73 98 -72 4
2 7 -1 5 -7 -1 -5 20 -29 48 -54 l49 -44 33 46 c18 26 29 49 25 53 -32 29
-255 208 -322 259 -133 101 -180 131 -193 124 -7 -4 -9 -4 -5 1 10 11 -80 78
-94 69 -6 -4 -8 -3 -5 3 13 22 -541 361 -566 347 -6 -4 -9 -3 -4 1 10 12 -111
78 -129 71 -8 -3 -13 -2 -10 3 3 4 -13 14 -36 20 -50 15 -157 26 -143 14z"/>
<path d="M3081 3932 c-12 -24 -18 -48 -15 -54 4 -6 3 -8 -3 -5 -25 16 -73
-220 -73 -360 l0 -93 -1084 0 c-1034 0 -1087 -1 -1145 -19 -157 -49 -251 -153
-308 -341 -23 -74 -49 -250 -41 -272 4 -10 70 -25 218 -51 117 -21 214 -36
217 -33 2 2 6 30 7 62 13 224 100 396 234 460 54 26 199 31 962 38 371 4 815
9 986 12 l311 6 6 97 c5 101 30 229 52 271 13 24 11 28 -46 83 -33 31 -65 54
-71 51 -6 -4 -8 -3 -5 3 7 12 -66 86 -76 77 -4 -4 -7 -2 -7 4 0 7 -22 33 -49
59 l-50 48 -20 -43z"/>
<path d="M5473 2981 c70 -93 153 -242 180 -323 29 -90 29 -286 0 -376 -55
-165 -195 -365 -392 -562 -244 -243 -527 -470 -885 -708 -389 -260 -690 -425
-833 -456 -161 -36 -342 -9 -458 67 -22 15 -16 6 20 -31 30 -32 53 -48 58 -43
6 6 22 1 42 -15 17 -13 38 -24 46 -24 8 -1 39 -9 69 -20 130 -46 373 -10 505
74 30 20 90 54 133 76 42 22 91 49 107 59 105 65 226 131 239 131 9 0 16 4 16
8 0 5 25 26 55 48 30 21 53 44 51 50 -3 7 3 10 12 8 10 -3 47 17 85 45 37 27
106 75 152 107 47 31 85 60 85 65 0 5 10 14 23 18 25 11 36 19 206 160 119 99
183 158 359 329 41 39 79 72 83 72 5 0 9 5 9 10 0 6 24 39 53 73 129 152 218
317 242 449 30 165 5 311 -80 453 -13 22 -30 54 -38 70 -8 17 -21 36 -30 44
-10 7 -17 19 -17 26 0 8 -3 15 -8 17 -4 2 -28 32 -54 68 -25 36 -56 74 -68 85
-12 11 2 -13 33 -54z m-113 -1265 c0 -2 -8 -10 -17 -17 -16 -13 -17 -12 -4 4
13 16 21 21 21 13z m-830 -696 c0 -5 -4 -10 -10 -10 -5 0 -10 5 -10 10 0 6 5
10 10 10 6 0 10 -4 10 -10z"/>
<path d="M5058 2971 l-56 -28 55 -69 c31 -38 72 -93 91 -122 39 -58 38 -57
120 -20 23 11 42 23 42 26 0 9 -106 145 -152 194 l-43 47 -57 -28z"/>
<path d="M5375 2575 c-5 -2 -35 -11 -66 -19 l-57 -16 -7 -80 c-16 -186 -164
-395 -475 -670 -224 -200 -457 -371 -755 -555 -200 -124 -297 -154 -404 -125
-78 21 -155 116 -193 239 -7 23 -16 41 -20 41 -43 0 -388 -166 -388 -187 0
-22 48 -159 71 -206 32 -62 113 -142 172 -168 67 -30 205 -33 283 -6 117 41
554 301 829 495 393 276 760 601 898 794 125 175 165 284 150 402 -8 56 -15
69 -38 61z m-78 -81 c-3 -3 -12 -4 -19 -1 -8 3 -5 6 6 6 11 1 17 -2 13 -5z"/>
<path d="M819 2156 c-2 -2 -85 -20 -184 -40 -243 -50 -219 -37 -211 -108 22
-190 128 -373 254 -437 90 -46 138 -51 453 -51 222 1 296 4 296 13 0 7 21 42
46 78 26 37 47 69 47 72 0 3 -89 7 -197 9 -222 3 -235 7 -318 80 -57 51 -110
157 -131 263 -8 44 -17 90 -20 103 -4 19 -23 29 -35 18z"/>
<path d="M1632 1663 c-31 -46 -72 -121 -72 -132 0 -8 143 -11 473 -11 l472 0
87 78 c47 42 87 80 87 85 1 4 -230 7 -513 7 l-515 0 -19 -27z"/>
<path d="M2800 1688 c0 -15 -64 -154 -73 -160 -7 -4 47 -8 120 -8 108 0 134
-3 141 -15 7 -13 24 -8 113 33 129 60 238 116 264 136 18 14 -6 15 -272 16
-161 0 -293 -1 -293 -2z"/>
<path d="M510 1360 c39 -35 38 -34 187 -110 l108 -55 968 -3 967 -3 0 36 0 36
-220 0 c-219 0 -220 0 -273 25 -86 40 -182 124 -198 174 -8 23 -22 50 -30 60
-15 16 -67 18 -770 18 l-754 0 15 -18z"/>
<path d="M1465 1120 c3 -14 15 -30 27 -36 24 -13 531 -14 560 -2 11 4 23 18
27 32 l6 25 -313 0 c-308 0 -313 0 -307 -19z"/>
<path d="M2101 951 c-1 -28 26 -37 144 -49 188 -20 313 -57 349 -106 39 -52
59 -60 148 -61 45 0 113 3 151 7 l69 6 -33 47 c-66 93 -296 152 -569 147 l-260
-4 1 -8z"/>
</g>
</svg>
